<svg width="20" height="20" viewBox="0 0 26 23" fill="none" xmlns="http://www.w3.org/2000/svg">
<path d="M23 3.00004H19.5375L17.8375 0.450041C17.747 0.310619 17.6229 0.19628 17.4765 0.117618C17.3301 0.0389561 17.1662 -0.00148494 17 4.16713e-05H9C8.83381 -0.00148494 8.66993 0.0389561 8.52353 0.117618C8.37713 0.19628 8.25295 0.310619 8.1625 0.450041L6.4625 3.00004H3C2.20536 3.00333 1.44421 3.32046 0.882315 3.88236C0.320417 4.44425 0.00329046 5.2054 0 6.00004V20C0.00329046 20.7947 0.320417 21.5558 0.882315 22.1177C1.44421 22.6796 2.20536 22.9967 3 23H23C23.7946 22.9967 24.5558 22.6796 25.1177 22.1177C25.6796 21.5558 25.9967 20.7947 26 20V6.00004C25.9967 5.2054 25.6796 4.44425 25.1177 3.88236C24.5558 3.32046 23.7946 3.00333 23 3.00004ZM17.5 12.5C17.5 13.3901 17.2361 14.2601 16.7416 15.0001C16.2471 15.7401 15.5443 16.3169 14.7221 16.6575C13.8998 16.9981 12.995 17.0872 12.1221 16.9136C11.2492 16.7399 10.4474 16.3114 9.81802 15.682C9.18868 15.0527 8.7601 14.2509 8.58647 13.3779C8.41283 12.505 8.50195 11.6002 8.84254 10.778C9.18314 9.9557 9.75991 9.25289 10.4999 8.75843C11.24 8.26396 12.11 8.00004 13 8.00004C14.1935 8.00004 15.3381 8.47415 16.182 9.31806C17.0259 10.162 17.5 11.3066 17.5 12.5Z" fill="#676767"/>
</svg>
