<svg width="45" height="45" viewBox="0 0 45 45" fill="none" xmlns="http://www.w3.org/2000/svg">
<path d="M22.5 27.0931C30.119 27.0931 36.6259 31.4276 39.2276 37.5414C42.8121 33.5535 45 28.2828 45 22.5C45 10.0759 34.9241 0 22.5 0C10.0759 0 0 10.0759 0 22.5C0 28.2828 2.18276 33.5586 5.77241 37.5414C8.37931 31.4276 14.881 27.0931 22.5 27.0931Z" fill="#f4f4f5"/>
<path d="M22.5003 44.9999C29.1417 44.9999 35.1106 42.1189 39.2279 37.5413C36.621 31.4275 30.1193 27.093 22.5003 27.093C14.8813 27.093 8.37443 31.4275 5.77271 37.5413C9.88995 42.1189 15.8589 44.9999 22.5003 44.9999Z" fill="#e4e4e7"/>
<path d="M22.5002 29.1983C28.0678 29.1983 32.5813 24.6849 32.5813 19.1173C32.5813 13.5497 28.0678 9.03625 22.5002 9.03625C16.9326 9.03625 12.4192 13.5497 12.4192 19.1173C12.4192 24.6849 16.9326 29.1983 22.5002 29.1983Z" fill="#e4e4e7"/>
</svg>
